{
  "accessors": [
    {
      "bufferView": 2,
      "componentType": 5126,
      "count": 65532,
      "max": [
        -3.1945929527282715,
        10.709359169006348,
        -0.3300110101699829
      ],
      "min": [
        -4.131609916687012,
        10.160802841186523,
        -0.6187880039215088
      ],
      "type": "VEC3"
    },
    {
      "bufferView": 2,
      "byteOffset": 786384,
      "componentType": 5126,
      "count": 65532,
      "max": [
        1.0,
        0.9999390840530396,
        0.9998990893363953
      ],
      "min": [
        -1.0,
        -0.999930202960968,
        -1.0
      ],
      "type": "VEC3"
    },
    {
      "bufferView": 1,
      "componentType": 5126,
      "count": 65532,
      "max": [
        0.9999160170555115,
        0.991894006729126
      ],
      "min": [
        3.999999989900971e-06,
        3.300000025774352e-05
      ],
      "type": "VEC2"
    },
    {
      "bufferView": 0,
      "componentType": 5125,
      "count": 326382,
      "type": "SCALAR"
    },
    {
      "bufferView": 2,
      "byteOffset": 1572768,
      "componentType": 5126,
      "count": 65532,
      "max": [
        -3.2036681175231934,
        10.696820259094238,
        -0.21647800505161285
      ],
      "min": [
        -4.110287189483643,
        10.091191291809082,
        -0.6202509999275208
      ],
      "type": "VEC3"
    },
    {
      "bufferView": 2,
      "byteOffset": 2359152,
      "componentType": 5126,
      "count": 65532,
      "max": [
        0.9998806118965149,
        0.9999790191650391,
        0.9999887943267822
      ],
      "min": [
        -0.9999867081642151,
        -0.9998319745063782,
        -0.9999557733535767
      ],
      "type": "VEC3"
    },
    {
      "bufferView": 1,
      "byteOffset": 524256,
      "componentType": 5126,
      "count": 65532,
      "max": [
        0.9989979863166809,
        0.9970080256462097
      ],
      "min": [
        2.499999936844688e-05,
        0.0014799999771639705
      ],
      "type": "VEC2"
    },
    {
      "bufferView": 0,
      "byteOffset": 1305528,
      "componentType": 5125,
      "count": 325794,
      "type": "SCALAR"
    },
    {
      "bufferView": 2,
      "byteOffset": 3145536,
      "componentType": 5126,
      "count": 65532,
      "max": [
        -3.167267084121704,
        10.698640823364258,
        -0.13885000348091125
      ],
      "min": [
        -4.130634784698486,
        10.086732864379883,
        -0.5251529812812805
      ],
      "type": "VEC3"
    },
    {
      "bufferView": 2,
      "byteOffset": 3931920,
      "componentType": 5126,
      "count": 65532,
      "max": [
        0.9999821186065674,
        0.999993085861206,
        0.9999865293502808
      ],
      "min": [
        -0.9999774098396301,
        -0.999988317489624,
        -0.9999929070472717
      ],
      "type": "VEC3"
    },
    {
      "bufferView": 1,
      "byteOffset": 1048512,
      "componentType": 5126,
      "count": 65532,
      "max": [
        0.9971280097961426,
        0.9962670207023621
      ],
      "min": [
        0.003734000027179718,
        3.9999998989515007e-05
      ],
      "type": "VEC2"
    },
    {
      "bufferView": 0,
      "byteOffset": 2608704,
      "componentType": 5125,
      "count": 337965,
      "type": "SCALAR"
    },
    {
      "bufferView": 2,
      "byteOffset": 4718304,
      "componentType": 5126,
      "count": 65532,
      "max": [
        -3.167375087738037,
        10.702954292297363,
        -0.1904350072145462
      ],
      "min": [
        -4.13072395324707,
        10.16120719909668,
        -0.5499320030212402
      ],
      "type": "VEC3"
    },
    {
      "bufferView": 2,
      "byteOffset": 5504688,
      "componentType": 5126,
      "count": 65532,
      "max": [
        0.9998365044593811,
        0.9999764561653137,
        0.9999865293502808
      ],
      "min": [
        -0.9999972581863403,
        -0.9997008442878723,
        -0.9999918937683105
      ],
      "type": "VEC3"
    },
    {
      "bufferView": 1,
      "byteOffset": 1572768,
      "componentType": 5126,
      "count": 65532,
      "max": [
        0.9999240040779114,
        0.9957889914512634
      ],
      "min": [
        8.499999967170879e-05,
        0.003671000013127923
      ],
      "type": "VEC2"
    },
    {
      "bufferView": 0,
      "byteOffset": 3960564,
      "componentType": 5125,
      "count": 316482,
      "type": "SCALAR"
    },
    {
      "bufferView": 2,
      "byteOffset": 6291072,
      "componentType": 5126,
      "count": 53071,
      "max": [
        -3.1678590774536133,
        10.70145320892334,
        -0.22533300518989563
      ],
      "min": [
        -4.130825996398926,
        10.086755752563477,
        -0.5888040065765381
      ],
      "type": "VEC3"
    },
    {
      "bufferView": 2,
      "byteOffset": 6927924,
      "componentType": 5126,
      "count": 53071,
      "max": [
        0.9999676942825317,
        0.9998955130577087,
        0.9999439120292664
      ],
      "min": [
        -1.0,
        -0.999988317489624,
        -0.9999989867210388
      ],
      "type": "VEC3"
    },
    {
      "bufferView": 1,
      "byteOffset": 2097024,
      "componentType": 5126,
      "count": 53071,
      "max": [
        0.9999650120735168,
        0.9968140125274658
      ],
      "min": [
        1.2999999853491317e-05,
        0.0015140000032261014
      ],
      "type": "VEC2"
    },
    {
      "bufferView": 0,
      "byteOffset": 5226492,
      "componentType": 5125,
      "count": 231711,
      "type": "SCALAR"
    }
  ],
  "asset": {
    "extras": {
      "author": "Malopolska`s Virtual Museums (https://sketchfab.com/WirtualneMuzeaMalopolski)",
      "license": "CC0-1.0 (http://creativecommons.org/publicdomain/zero/1.0/)",
      "source": "https://sketchfab.com/3d-models/blaps-mortisaga-d7d0e0204d4a4a5cb428f021d9429487",
      "title": "Blaps mortisaga"
    },
    "generator": "Sketchfab-10.58.0",
    "version": "2.0"
  },
  "bufferViews": [
    {
      "buffer": 0,
      "byteLength": 6153336,
      "name": "floatBufferViews",
      "target": 34963
    },
    {
      "buffer": 0,
      "byteLength": 2521592,
      "byteOffset": 6153336,
      "byteStride": 8,
      "name": "floatBufferViews",
      "target": 34962
    },
    {
      "buffer": 0,
      "byteLength": 7564776,
      "byteOffset": 8674928,
      "byteStride": 12,
      "name": "floatBufferViews",
      "target": 34962
    }
  ],
  "buffers": [
    {
      "byteLength": 16239704,
      "uri": "scene.bin"
    }
  ],
  "images": [
    {
      "uri": "textures/Pokatnik_Zlowieszczek_256K_edit05w_baseColor.png"
    },
    {
      "uri": "textures/Pokatnik_Zlowieszczek_256K_edit05w_metallicRoughness.png"
    }
  ],
  "materials": [
    {
      "doubleSided": true,
      "name": "Pokatnik_Zlowieszczek_256K_edit05w",
      "pbrMetallicRoughness": {
        "baseColorTexture": {
          "index": 0
        },
        "metallicRoughnessTexture": {
          "index": 1
        }
      }
    }
  ],
  "meshes": [
    {
      "name": "Object_0",
      "primitives": [
        {
          "attributes": {
            "NORMAL": 1,
            "POSITION": 0,
            "TEXCOORD_0": 2
          },
          "indices": 3,
          "material": 0,
          "mode": 4
        }
      ]
    },
    {
      "name": "Object_1",
      "primitives": [
        {
          "attributes": {
            "NORMAL": 5,
            "POSITION": 4,
            "TEXCOORD_0": 6
          },
          "indices": 7,
          "material": 0,
          "mode": 4
        }
      ]
    },
    {
      "name": "Object_2",
      "primitives": [
        {
          "attributes": {
            "NORMAL": 9,
            "POSITION": 8,
            "TEXCOORD_0": 10
          },
          "indices": 11,
          "material": 0,
          "mode": 4
        }
      ]
    },
    {
      "name": "Object_3",
      "primitives": [
        {
          "attributes": {
            "NORMAL": 13,
            "POSITION": 12,
            "TEXCOORD_0": 14
          },
          "indices": 15,
          "material": 0,
          "mode": 4
        }
      ]
    },
    {
      "name": "Object_4",
      "primitives": [
        {
          "attributes": {
            "NORMAL": 17,
            "POSITION": 16,
            "TEXCOORD_0": 18
          },
          "indices": 19,
          "material": 0,
          "mode": 4
        }
      ]
    }
  ],
  "nodes": [
    {
      "children": [
        1
      ],
      "matrix": [
        1.0,
        0.0,
        0.0,
        0.0,
        0.0,
        -0.14626061916351296,
        -0.9892460703849792,
        0.0,
        0.0,
        0.9892460703849792,
        -0.14626061916351296,
        0.0,
        0.0,
        1.5167382955551147,
        -0.16733257472515073,
        1.0
      ],
      "name": "Sketchfab_model"
    },
    {
      "children": [
        2,
        3,
        4,
        5,
        6
      ],
      "name": "Pokatnik_Zlowieszczek_256K_edit05w.obj.cleaner.materialmerger.gles"
    },
    {
      "mesh": 0,
      "name": "Object_2"
    },
    {
      "mesh": 1,
      "name": "Object_3"
    },
    {
      "mesh": 2,
      "name": "Object_4"
    },
    {
      "mesh": 3,
      "name": "Object_5"
    },
    {
      "mesh": 4,
      "name": "Object_6"
    }
  ],
  "samplers": [
    {
      "magFilter": 9729,
      "minFilter": 9987,
      "wrapS": 10497,
      "wrapT": 10497
    }
  ],
  "scene": 0,
  "scenes": [
    {
      "name": "Sketchfab_Scene",
      "nodes": [
        0
      ]
    }
  ],
  "textures": [
    {
      "sampler": 0,
      "source": 0
    },
    {
      "sampler": 0,
      "source": 1
    }
  ]
}
